<svg xmlns="http://www.w3.org/2000/svg" width="221" height="45" viewBox="0 0 221 45" fill="none"><g clip-path="url(#clip0_680_16577)"><path d="M23.7034 1.3355C23.5157 1.89879 23.3423 2.38265 23.1907 2.87372C23.1257 3.08315 23.0029 3.20592 22.7791 3.2637C22.2952 3.38647 21.8113 3.52368 21.3347 3.66811C21.1831 3.71144 21.0458 3.79088 20.8147 3.89199C20.9736 4.05086 21.0603 4.16641 21.1686 4.25307C21.5514 4.54916 21.9341 4.85247 22.3385 5.11968C22.613 5.30022 22.6924 5.51687 22.6635 5.84185C22.613 6.32571 22.6057 6.80956 22.5985 7.29342C22.5985 7.41619 22.6346 7.58951 22.7141 7.64006C22.7863 7.68339 22.9668 7.61839 23.0607 7.5534C23.4507 7.30064 23.819 7.02621 24.2378 6.79512C23.6962 10.3771 22.3385 13.4969 19.3271 15.8006C20.3237 16.4506 21.4358 16.4072 22.5263 16.595C22.1147 16.6672 21.703 16.7539 21.2914 16.8044C18.8432 17.1005 16.4962 16.6889 14.2285 15.7645C12.1992 14.934 10.3721 13.7641 8.74003 12.3053C8.59559 12.1753 8.48005 11.9875 8.23451 12.0525C7.96008 12.1247 7.77954 12.3197 7.78676 12.6375C7.78676 12.8541 7.83009 13.078 7.91675 13.273C8.09007 13.6702 8.26339 14.0746 8.50893 14.4285C9.52719 15.9017 10.5743 17.3533 11.6143 18.8048C11.9681 19.2959 12.3437 19.7653 12.712 20.242C13.4847 21.2386 13.528 22.4663 12.7986 23.499C12.3076 24.1995 11.7948 24.8783 11.2893 25.5644C10.3505 26.8498 9.41165 28.1281 8.47282 29.4135C8.39338 29.5219 8.28506 29.623 8.25617 29.7457C8.22728 29.8757 8.23451 30.0707 8.31395 30.1502C8.38616 30.2296 8.58115 30.2368 8.71114 30.2152C8.83391 30.1935 8.94224 30.0924 9.05778 30.0274C10.3577 29.2691 11.6865 28.5542 13.0947 28.027C13.7375 27.7814 14.3946 27.5937 15.0807 27.5431C15.7595 27.4926 16.2867 27.7164 16.6839 28.2653C17.1172 28.8575 17.3555 29.5291 17.5 30.244C17.8394 31.905 17.7888 33.566 17.5722 35.2631C17.4278 35.2776 17.2978 35.2993 17.1678 35.2993C13.2031 35.2993 9.23833 35.3065 5.2736 35.2993C2.70989 35.2993 0.709473 33.3133 0.709473 30.7568C0.709473 22.4374 0.709473 14.1396 0.709473 5.84185C0.716694 3.31425 2.69545 1.30661 5.23749 1.29939C11.2604 1.28494 17.2833 1.29939 23.3062 1.29939C23.4218 1.29939 23.5301 1.32105 23.7034 1.3355ZM19.0021 7.3223C17.7527 7.1201 16.6189 6.94677 15.4851 6.74457C15.2179 6.69401 15.0446 6.76623 14.8568 6.93233C14.1491 7.57506 13.4341 8.19613 12.7264 8.83164C12.647 8.90386 12.5892 8.99052 12.4809 9.12051C13.037 9.23606 13.5353 9.33716 14.0336 9.43827C13.983 9.69103 13.9324 9.88601 13.9108 10.081C13.7447 11.3881 14.0697 12.5364 15.0157 13.4752C15.4562 13.9085 15.9906 14.1829 16.6189 14.2118C17.6444 14.2624 18.3738 13.7641 18.8938 12.9264C19.6954 11.6264 19.5654 9.77769 18.5977 8.54277C18.4966 8.41278 18.3882 8.28279 18.2799 8.14558C18.5038 7.8856 18.7204 7.64006 19.0093 7.31508L19.0021 7.3223ZM12.8925 11.5181C12.8059 12.1464 12.7697 12.7603 12.9575 13.3597C13.0442 13.6196 13.1886 13.8796 13.3692 14.0818C13.463 14.1902 13.6941 14.1685 13.8602 14.2118C13.8891 14.0602 13.983 13.8941 13.9469 13.7569C13.7447 12.948 13.3619 12.2186 12.8925 11.5253V11.5181Z" fill="#A81417"></path><path d="M74.9419 1.3125H81.5787C81.6292 1.89746 81.6003 2.4752 81.6003 3.05293C81.6003 3.62345 81.6003 4.19397 81.6003 4.75726V13.4883C81.6003 13.4883 81.6581 13.5244 81.6942 13.5461C81.8098 13.4233 81.9325 13.3078 82.0481 13.185C83.0519 12.109 84.2218 11.3001 85.6734 10.9679C88.0565 10.4263 90.4325 10.4335 92.7507 11.2496C96.311 12.4989 98.4703 15.0699 99.503 18.6374C99.8929 19.9806 100.052 21.36 100.052 22.7538C100.052 26.733 100.052 30.7193 100.052 34.6985C100.052 34.8502 100.037 34.9946 100.03 35.1318C99.633 35.2618 94.3467 35.2763 93.8267 35.139V34.5613C93.8267 30.8999 93.8339 27.2313 93.8195 23.5698C93.8195 22.891 93.7617 22.1905 93.6173 21.5333C92.989 18.7818 90.5408 16.8825 87.7099 16.8825C84.9151 16.8825 82.4164 18.8396 81.8098 21.5622C81.6581 22.241 81.622 22.956 81.6148 23.6565C81.5931 27.289 81.6075 30.9216 81.6075 34.5469V35.1246C81.2103 35.2546 75.5774 35.2907 74.9419 35.1679V1.3125Z" fill="white"></path><path d="M186.791 13.0259V10.5127H193.464V35.1171C193.118 35.2399 187.636 35.2905 186.813 35.1677V32.5534C186.661 32.6618 186.575 32.6979 186.517 32.7629C185.217 34.1855 183.556 34.8644 181.693 35.0666C176.789 35.5938 172.059 33.0878 169.661 28.7404C165.617 21.4103 169.95 12.2243 178.183 10.6861C180.075 10.3322 181.946 10.3827 183.765 11.076C184.813 11.4732 185.737 12.051 186.503 12.8815C186.56 12.9392 186.618 12.997 186.683 13.0476C186.719 13.0403 186.755 13.0259 186.791 13.0187V13.0259ZM186.539 22.768C186.524 19.4677 183.809 16.7162 180.573 16.7234C177.064 16.7306 174.334 19.4027 174.334 22.8258C174.334 26.1478 177.143 28.9498 180.443 28.9281C183.83 28.9065 186.546 26.155 186.539 22.768Z" fill="#A81417"></path><path d="M121.427 35.1965V32.5389C121.275 32.6833 121.196 32.7411 121.138 32.8061C119.997 34.0338 118.567 34.7126 116.942 34.9798C110.768 36.0053 104.68 31.9467 103.163 25.8155C101.481 19.0126 105.669 12.2459 112.53 10.7365C114.444 10.3177 116.35 10.3321 118.22 10.9893C119.34 11.3865 120.336 11.9787 121.153 12.8597C121.21 12.9175 121.275 12.9753 121.398 13.0908C121.492 12.1953 121.384 11.3504 121.47 10.491H128.114V35.1821H121.434L121.427 35.1965ZM115.086 28.9208C118.459 28.9136 121.21 26.1405 121.203 22.7679C121.196 19.482 118.452 16.7089 115.216 16.7233C111.706 16.7378 108.977 19.4243 108.998 22.8474C109.013 26.1621 111.793 28.9353 115.086 28.9208Z" fill="white"></path><path d="M155.443 10.5354V35.1398C155.068 35.2553 149.406 35.2842 148.777 35.1686V32.5472C148.633 32.6627 148.568 32.706 148.517 32.7566C147.384 34.0132 145.932 34.6992 144.293 34.9809C138.624 35.9486 132.897 32.5688 130.882 27.0875C128.282 20.0247 132.529 12.3047 139.887 10.7376C141.975 10.2898 144.04 10.3476 146.04 11.1925C146.965 11.5825 147.781 12.1241 148.467 12.8535C148.525 12.9113 148.59 12.9691 148.647 13.0268C148.655 13.0341 148.676 13.0268 148.749 13.0268V10.5787C149.167 10.4559 154.815 10.427 155.443 10.5354ZM136.342 22.8484C136.356 26.1704 139.108 28.9219 142.422 28.9291C145.809 28.9291 148.561 26.1343 148.539 22.7256C148.517 19.4614 145.773 16.7171 142.56 16.7244C139.043 16.7388 136.327 19.4108 136.342 22.8484Z" fill="white"></path><path d="M71.5624 5.38482C69.8725 7.06026 68.2115 8.70681 66.5288 10.3606C64.0879 8.62737 61.4158 8.00631 58.5127 8.61293C56.2162 9.08956 54.3458 10.2956 52.8798 12.1227C49.9477 15.7841 50.0272 21.0054 53.0025 24.5874C56.0212 28.2271 61.7914 29.5993 66.4927 26.2339C68.1609 27.9021 69.8291 29.5704 71.4901 31.2314C66.5288 35.7883 56.8373 37.3265 49.63 31.2025C42.1844 24.8835 41.5778 13.6898 48.3012 6.60529C54.9885 -0.443108 65.4239 -0.0603569 71.5696 5.38482H71.5624Z" fill="white"></path><path d="M207.771 35.2247C200.94 35.2247 195.437 29.7289 195.465 22.9044C195.494 15.7549 201.301 10.5625 207.829 10.5625C214.235 10.5625 220.128 15.7116 220.099 22.9189C220.077 30.0611 214.271 35.2897 207.771 35.2247ZM207.728 29.014C211.064 29.0573 213.83 26.342 213.888 22.9694C213.946 19.6474 211.216 16.8671 207.836 16.8165C204.493 16.766 201.698 19.4813 201.676 22.8539C201.654 26.1975 204.363 28.9923 207.721 29.014H207.728Z" fill="#A81417"></path><path d="M25.0472 6.61468C25.3216 6.70856 25.5527 6.79522 25.7838 6.87466C26.0366 6.96132 26.2821 7.06965 26.5421 7.14187C26.8093 7.22131 26.9321 7.11298 26.8599 6.83855C26.7299 6.3547 26.5999 5.87084 26.4193 5.40143C26.2821 5.04035 26.3327 4.77314 26.5927 4.49149C26.8887 4.17374 27.1415 3.81265 27.4087 3.47323C27.4954 3.35768 27.5676 3.23492 27.6904 3.03271C27.4809 2.98215 27.3509 2.9316 27.2137 2.92438C26.7154 2.90272 26.2099 2.88105 25.7116 2.88827C25.4372 2.88827 25.2422 2.81606 25.0978 2.5633C24.8594 2.15888 24.5922 1.78335 24.2961 1.34282C24.4839 1.32116 24.6067 1.29227 24.7294 1.29227C26.5349 1.29227 28.3403 1.28505 30.153 1.29227C32.8467 1.30672 34.7243 3.50934 34.7099 5.86362C34.6882 9.59725 34.7099 13.3237 34.7099 17.0573C34.7099 21.5925 34.7099 26.1278 34.7099 30.6558C34.7099 32.4684 33.901 33.8261 32.3339 34.7361C31.7273 35.0827 31.0629 35.2777 30.3696 35.2777C27.0043 35.2921 23.6462 35.2777 20.2809 35.2777C20.2448 35.2777 20.2159 35.2632 20.1509 35.256C20.1798 35.1621 20.1942 35.0683 20.2375 34.9816C21.7685 31.9268 22.729 28.677 23.4368 25.3478C24.0939 22.2497 24.5056 19.1227 24.7656 15.9668C25.0111 13.0131 25.1194 10.0594 25.0616 7.09131C25.0616 6.94688 25.0616 6.79522 25.0616 6.60024L25.0472 6.61468Z" fill="white"></path><path d="M156.17 44.8091V38.1507C156.408 38.1218 156.625 38.1146 156.834 38.0713C158.192 37.7968 159.102 36.7208 159.167 35.3126C159.174 35.1465 159.167 34.9804 159.167 34.8143C159.167 26.9859 159.167 19.1576 159.167 11.3292V10.6504H165.818C165.832 10.8237 165.854 11.0115 165.854 11.2065C165.854 12.7591 165.854 14.319 165.854 15.8717C165.854 22.2629 165.854 28.6541 165.854 35.0454C165.854 37.6885 165.009 40.0067 163.16 41.9132C161.434 43.697 159.304 44.6358 156.834 44.8164C156.625 44.8308 156.408 44.8164 156.163 44.8164L156.17 44.8091Z" fill="#A81417"></path><path d="M159.204 7.45201V1.42188H165.775C165.884 1.82629 165.898 6.94649 165.79 7.45201H159.204Z" fill="#A81417"></path><path d="M142.066 4.38858C142.435 4.98076 142.781 5.52961 143.171 6.15068C142.68 6.20123 142.261 6.19401 141.843 6.15068C141.756 6.15068 141.662 6.01347 141.604 5.92681C141.359 5.56572 141.106 5.21186 140.897 4.83633C140.702 4.48247 140.442 4.38136 140.023 4.51857V6.12902H138.766V0.835497C138.911 0.821053 139.041 0.799388 139.171 0.799388C139.806 0.799388 140.442 0.784945 141.077 0.799388C141.395 0.80661 141.72 0.828275 142.016 0.929379C142.695 1.14603 143.092 1.65155 143.2 2.35206C143.309 3.06701 143.085 3.67363 142.5 4.12138C142.384 4.20804 142.254 4.28026 142.081 4.38858H142.066ZM140.023 3.2981C140.543 3.2981 141.034 3.31977 141.532 3.29088C141.871 3.26922 142.066 3.00923 142.088 2.68426C142.11 2.3665 141.893 2.01264 141.568 1.99097C141.063 1.94764 140.55 1.97653 140.03 1.97653V3.2981H140.023Z" fill="#A81417"></path><path d="M110.759 4.38198C111.128 4.97416 111.474 5.52302 111.864 6.15853C111.373 6.19464 110.947 6.19464 110.528 6.15853C110.442 6.1513 110.348 6.02131 110.29 5.92743C110.044 5.56635 109.792 5.21248 109.582 4.83695C109.387 4.48309 109.12 4.3892 108.708 4.5192V6.13686H107.531C107.423 5.79744 107.387 1.55107 107.488 0.872227C107.517 0.850562 107.538 0.814453 107.567 0.814453C108.521 0.821675 109.474 0.792788 110.42 0.865005C111.156 0.922779 111.72 1.49329 111.864 2.20825C112.016 2.97375 111.821 3.63092 111.185 4.122C111.07 4.20866 110.94 4.28088 110.767 4.3892L110.759 4.38198ZM108.723 3.30595C109.236 3.30595 109.698 3.32761 110.16 3.30595C110.55 3.27706 110.774 3.01708 110.774 2.65599C110.774 2.30935 110.535 1.99882 110.174 1.97715C109.698 1.94826 109.221 1.96993 108.723 1.96993V3.31317V3.30595Z" fill="#A81417"></path><path d="M121.414 0.84375C122.96 0.84375 124.202 2.057 124.209 3.588C124.216 5.12623 122.988 6.36837 121.457 6.37559C119.912 6.37559 118.677 5.16234 118.663 3.63133C118.655 2.09311 119.876 0.850972 121.414 0.850972V0.84375ZM123.053 3.59523C123.053 2.70695 122.31 1.97034 121.429 1.97034C120.547 1.97034 119.804 2.71418 119.796 3.59523C119.796 4.50516 120.547 5.25622 121.45 5.24178C122.346 5.22733 123.061 4.49794 123.053 3.59523Z" fill="#A81417"></path><path d="M117.428 0.828125V6.17942H116.2V4.09957H114.525V6.15053H113.297V0.835347H114.467C114.605 1.49252 114.446 2.17859 114.561 2.87909H116.193V0.828125H117.428Z" fill="#A81417"></path><path d="M97.6892 4.46142V6.15131H96.4976C96.3893 5.81911 96.3532 1.75328 96.447 0.872227C96.4759 0.850562 96.4976 0.814453 96.5265 0.814453C97.4797 0.821675 98.433 0.80001 99.3791 0.857783C100.094 0.901114 100.571 1.3633 100.802 2.0277C101.221 3.20484 100.419 4.38921 99.1696 4.4542C98.7074 4.47587 98.238 4.4542 97.6892 4.4542V4.46142ZM97.7108 3.29873C98.238 3.29873 98.7219 3.32039 99.1985 3.2915C99.5524 3.26984 99.7329 3.03152 99.7546 2.6921C99.7762 2.34546 99.5813 2.04215 99.2491 1.98437C98.7435 1.90493 98.2308 1.94104 97.7181 1.96271V3.2915L97.7108 3.29873Z" fill="#A81417"></path><path d="M136.21 0.821521H137.351C137.365 0.965956 137.387 1.08872 137.387 1.21872C137.387 2.12143 137.373 3.02415 137.387 3.92686C137.409 5.2701 136.21 6.14393 135.206 6.18004C133.957 6.21615 132.881 5.32788 132.816 4.10018C132.758 3.03137 132.801 1.96255 132.801 0.879295C133.17 0.713195 133.531 0.835965 133.935 0.792634C133.949 0.973177 133.971 1.11761 133.971 1.26205C133.971 2.09977 133.971 2.93749 133.971 3.7752C133.971 4.18684 134.087 4.53349 134.433 4.77902C134.787 5.02456 135.17 5.08956 135.567 4.88735C135.972 4.68514 136.21 4.37461 136.203 3.89797C136.195 3.0747 136.203 2.25864 136.203 1.43537C136.203 1.25482 136.203 1.07428 136.203 0.828743L136.21 0.821521Z" fill="#A81417"></path><path d="M106.233 6.15053H104.796C104.76 6.1072 104.702 6.06387 104.687 6.0061C104.543 5.52947 104.225 5.37059 103.741 5.43558C103.409 5.47891 103.07 5.45725 102.737 5.43558C102.449 5.42114 102.246 5.49336 102.152 5.78223C102.051 6.1072 101.842 6.21553 101.51 6.18664C101.199 6.15775 100.889 6.18664 100.477 6.18664C101.452 4.37399 102.384 2.648 103.366 0.828125C104.341 2.64078 105.272 4.37399 106.233 6.16498V6.15053ZM103.85 4.41732C103.684 4.08512 103.546 3.83236 103.366 3.4785C103.185 3.82514 103.048 4.09234 102.875 4.41732H103.842H103.85Z" fill="#A81417"></path><path d="M132.476 6.15131H130.988C130.858 5.44358 130.353 5.3858 129.753 5.43636C129.371 5.47246 128.988 5.43636 128.598 5.43636C128.461 5.67467 128.338 5.89132 128.201 6.14408H126.756C127.688 4.36754 128.641 2.63433 129.616 0.814453C130.584 2.61988 131.515 4.3531 132.483 6.14408L132.476 6.15131ZM130.114 4.43254C129.927 4.08589 129.782 3.82591 129.594 3.48649C129.414 3.8548 129.291 4.122 129.14 4.43254H130.114Z" fill="#A81417"></path></g><defs><clipPath id="clip0_680_16577"><rect width="219.389" height="44.0308" fill="white" transform="translate(0.709473 0.785156)"></rect></clipPath></defs></svg>