<svg xmlns="http://www.w3.org/2000/svg" width="265" height="115" viewBox="0 0 265 115" fill="none"><g clip-path="url(#clip0_680_16534)"><path d="M27.9267 0.924345C27.7002 1.60381 27.4911 2.18745 27.3082 2.7798C27.2298 3.03242 27.0817 3.18051 26.8117 3.2502C26.228 3.39829 25.6444 3.5638 25.0695 3.73802C24.8865 3.79028 24.721 3.88611 24.4423 4.00806C24.6339 4.1997 24.7384 4.33908 24.8691 4.44361C25.3308 4.80077 25.7925 5.16663 26.2803 5.48894C26.6113 5.70672 26.7071 5.96805 26.6723 6.36005C26.6113 6.94369 26.6026 7.52733 26.5939 8.11097C26.5939 8.25906 26.6374 8.46812 26.7333 8.5291C26.8204 8.58137 27.0382 8.50297 27.1514 8.42457C27.6218 8.11968 28.0661 7.78866 28.5713 7.50991C27.918 11.8306 26.2803 15.5938 22.6478 18.3726C23.8499 19.1566 25.1914 19.1043 26.5068 19.3308C26.0103 19.4179 25.5137 19.5225 25.0172 19.5834C22.0641 19.9406 19.233 19.4441 16.4978 18.329C14.05 17.3273 11.8461 15.9161 9.87737 14.1564C9.70315 13.9996 9.56377 13.7732 9.2676 13.8516C8.93658 13.9387 8.7188 14.1739 8.72751 14.5572C8.72751 14.8185 8.77978 15.0885 8.88431 15.3237C9.09338 15.8028 9.30244 16.2907 9.59862 16.7175C10.8269 18.4946 12.09 20.2455 13.3444 21.9964C13.7712 22.5888 14.2242 23.155 14.6685 23.7299C15.6005 24.932 15.6528 26.4129 14.773 27.6586C14.1806 28.5036 13.5621 29.3224 12.9524 30.15C11.8199 31.7005 10.6875 33.2424 9.55506 34.7929C9.45924 34.9236 9.32857 35.0456 9.29373 35.1937C9.25889 35.3505 9.2676 35.5857 9.36342 35.6815C9.45053 35.7773 9.68573 35.786 9.84253 35.7599C9.99061 35.7337 10.1213 35.6118 10.2607 35.5334C11.8286 34.6187 13.4315 33.7563 15.1301 33.1204C15.9054 32.8242 16.6981 32.5978 17.5257 32.5368C18.3445 32.4758 18.9804 32.7458 19.4595 33.4079C19.9822 34.1222 20.2697 34.9323 20.4439 35.7947C20.8533 37.7983 20.7923 39.8018 20.531 41.8489C20.3568 41.8663 20.2 41.8925 20.0432 41.8925C15.2608 41.8925 10.4784 41.9012 5.69606 41.8925C2.60364 41.8925 0.190674 39.4969 0.190674 36.4132C0.190674 26.3781 0.190674 16.3691 0.190674 6.36005C0.199385 3.31118 2.58622 0.889501 5.65251 0.88079C12.9175 0.863368 20.1826 0.88079 27.4476 0.88079C27.587 0.88079 27.7176 0.906923 27.9267 0.924345ZM22.2558 8.14581C20.7488 7.9019 19.3811 7.69284 18.0135 7.44893C17.6912 7.38795 17.4821 7.47506 17.2556 7.67542C16.402 8.4507 15.5396 9.19985 14.6859 9.96643C14.5901 10.0535 14.5204 10.1581 14.3897 10.3149C15.0605 10.4542 15.6615 10.5762 16.2626 10.6982C16.2016 11.003 16.1406 11.2382 16.1145 11.4734C15.9141 13.0501 16.3061 14.4352 17.4473 15.5676C17.9787 16.0903 18.6233 16.4213 19.3811 16.4562C20.6181 16.5171 21.4979 15.9161 22.1251 14.9056C23.092 13.3376 22.9352 11.1076 21.768 9.61798C21.646 9.46118 21.5153 9.30438 21.3847 9.13887C21.6547 8.82528 21.9161 8.5291 22.2645 8.1371L22.2558 8.14581ZM14.8862 13.2069C14.7817 13.9648 14.7381 14.7052 14.9646 15.4283C15.0692 15.7419 15.2434 16.0555 15.4612 16.2994C15.5744 16.43 15.8532 16.4039 16.0535 16.4562C16.0884 16.2732 16.2016 16.0729 16.158 15.9074C15.9141 14.9317 15.4524 14.0519 14.8862 13.2157V13.2069Z" fill="#A81417"></path><path d="M89.7317 0.900391H97.7372C97.7981 1.60599 97.7633 2.30287 97.7633 2.99976C97.7633 3.68793 97.7633 4.3761 97.7633 5.05557V15.5872C97.7633 15.5872 97.833 15.6308 97.8765 15.6569C98.0159 15.5088 98.164 15.3695 98.3034 15.2214C99.5142 13.9234 100.925 12.9478 102.676 12.5471C105.551 11.8937 108.417 11.9025 111.213 12.8868C115.508 14.3938 118.112 17.495 119.358 21.7982C119.828 23.4185 120.02 25.0823 120.02 26.7635C120.02 31.5633 120.02 36.3718 120.02 41.1716C120.02 41.3545 120.003 41.5288 119.994 41.6943C119.515 41.8511 113.138 41.8685 112.511 41.703V41.0061C112.511 36.5896 112.52 32.1644 112.502 27.7479C112.502 26.929 112.433 26.0841 112.258 25.2914C111.501 21.9724 108.548 19.6814 105.133 19.6814C101.762 19.6814 98.7476 22.0421 98.0159 25.3262C97.833 26.145 97.7894 27.0074 97.7807 27.8524C97.7546 32.2341 97.772 36.6157 97.772 40.9887V41.6856C97.2929 41.8424 90.4983 41.8859 89.7317 41.7378V0.900391Z" fill="#24272C"></path><path d="M224.647 15.0275V11.996H232.696V41.6746C232.278 41.8227 225.667 41.8837 224.673 41.7356V38.5822C224.491 38.7128 224.386 38.7564 224.316 38.8348C222.748 40.5509 220.745 41.3697 218.497 41.6136C212.583 42.2495 206.877 39.2268 203.985 33.9827C199.107 25.141 204.333 14.0605 214.264 12.2051C216.546 11.7782 218.802 11.8392 220.997 12.6755C222.26 13.1546 223.376 13.8515 224.299 14.8532C224.369 14.9229 224.438 14.9926 224.517 15.0536C224.56 15.0449 224.604 15.0275 224.647 15.0188V15.0275ZM224.342 26.7787C224.325 22.7977 221.05 19.4788 217.147 19.4875C212.914 19.4962 209.621 22.7193 209.621 26.8484C209.621 30.8555 213.009 34.2354 216.99 34.2092C221.076 34.1831 224.351 30.8642 224.342 26.7787Z" fill="#A81417"></path><path d="M145.804 41.772V38.5663C145.621 38.7405 145.525 38.8102 145.456 38.8886C144.079 40.3695 142.354 41.1883 140.394 41.5107C132.947 42.7476 125.603 37.852 123.774 30.4563C121.744 22.2505 126.797 14.0882 135.072 12.2676C137.38 11.7624 139.68 11.7798 141.936 12.5725C143.287 13.0516 144.489 13.7659 145.473 14.8287C145.543 14.8984 145.621 14.9681 145.769 15.1074C145.882 14.0273 145.752 13.0081 145.856 11.9715H153.87V41.7546H145.813L145.804 41.772ZM138.156 34.2021C142.224 34.1934 145.543 30.8483 145.534 26.7803C145.525 22.8167 142.215 19.4717 138.313 19.4891C134.079 19.5065 130.786 22.747 130.812 26.8761C130.83 30.8745 134.184 34.2195 138.156 34.2021Z" fill="#24272C"></path><path d="M186.833 12.0214V41.7C186.381 41.8394 179.551 41.8742 178.793 41.7348V38.5727C178.619 38.7121 178.541 38.7644 178.48 38.8253C177.112 40.3411 175.361 41.1686 173.384 41.5083C166.545 42.6756 159.638 38.5988 157.207 31.9871C154.071 23.4677 159.193 14.1556 168.07 12.2653C170.587 11.7252 173.079 11.7949 175.492 12.8141C176.607 13.2845 177.591 13.9378 178.419 14.8177C178.488 14.8873 178.567 14.957 178.636 15.0267C178.645 15.0354 178.671 15.0267 178.758 15.0267V12.0737C179.264 11.9256 186.076 11.8907 186.833 12.0214ZM163.793 26.8738C163.81 30.8808 167.129 34.1998 171.127 34.2085C175.213 34.2085 178.532 30.8373 178.506 26.7257C178.48 22.7883 175.169 19.4781 171.293 19.4868C167.051 19.5042 163.775 22.7273 163.793 26.8738Z" fill="#24272C"></path><path d="M85.6542 5.81416C83.6158 7.83512 81.6123 9.82125 79.5826 11.8161C76.6382 9.72542 73.4151 8.97627 69.9133 9.708C67.1432 10.2829 64.887 11.7377 63.1187 13.9416C59.582 18.3581 59.6778 24.6562 63.2668 28.9769C66.908 33.3672 73.8681 35.0223 79.539 30.963C81.5513 32.9752 83.5635 34.9875 85.5671 36.991C79.5826 42.4877 67.8923 44.3432 59.1987 36.9562C50.2176 29.334 49.4859 15.8319 57.5959 7.28633C65.6623 -1.21567 78.2498 -0.75398 85.6629 5.81416H85.6542Z" fill="#24272C"></path><path d="M249.955 41.8049C241.715 41.8049 235.077 35.1758 235.112 26.9438C235.147 18.3199 242.15 12.0566 250.025 12.0566C257.752 12.0566 264.86 18.2676 264.825 26.9613C264.799 35.5765 257.795 41.8833 249.955 41.8049ZM249.903 34.3134C253.928 34.3657 257.264 31.0903 257.334 27.0222C257.403 23.0152 254.111 19.6614 250.034 19.6004C246.001 19.5394 242.629 22.8148 242.603 26.8829C242.577 30.9161 245.844 34.2873 249.894 34.3134H249.903Z" fill="#A81417"></path><path d="M29.546 7.29306C29.877 7.40631 30.1558 7.51084 30.4345 7.60666C30.7394 7.71119 31.0356 7.84186 31.3492 7.92897C31.6715 8.02479 31.8196 7.89413 31.7325 7.56311C31.5757 6.97946 31.4189 6.39582 31.2011 5.8296C31.0356 5.39405 31.0966 5.07174 31.4102 4.73201C31.7673 4.34872 32.0722 3.91317 32.3945 3.50375C32.499 3.36438 32.5862 3.21629 32.7342 2.97238C32.4816 2.9114 32.3248 2.85042 32.1593 2.84171C31.5582 2.81558 30.9485 2.78945 30.3474 2.79816C30.0164 2.79816 29.7812 2.71105 29.607 2.40616C29.3195 1.91834 28.9972 1.46536 28.64 0.93399C28.8665 0.907856 29.0146 0.873012 29.1627 0.873012C31.3405 0.873012 33.5182 0.864301 35.7047 0.873012C38.9539 0.890434 41.2188 3.54731 41.2014 6.38711C41.1753 10.8907 41.2014 15.3856 41.2014 19.8893C41.2014 25.3598 41.2014 30.8303 41.2014 36.2922C41.2014 38.4787 40.2257 40.1163 38.3355 41.2139C37.6037 41.6321 36.8023 41.8673 35.966 41.8673C31.9067 41.8847 27.856 41.8673 23.7967 41.8673C23.7531 41.8673 23.7183 41.8498 23.6399 41.8411C23.6747 41.7279 23.6922 41.6146 23.7444 41.5101C25.5912 37.8253 26.7497 33.9053 27.6034 29.8895C28.3961 26.1525 28.8927 22.3806 29.2063 18.5739C29.5024 15.0111 29.6331 11.4482 29.5634 7.86799C29.5634 7.69377 29.5634 7.51084 29.5634 7.27564L29.546 7.29306Z" fill="#24272C"></path><path d="M187.713 53.3654V45.3338C188.001 45.299 188.262 45.2903 188.514 45.238C190.152 44.907 191.25 43.609 191.328 41.9104C191.337 41.71 191.328 41.5097 191.328 41.3093C191.328 31.8665 191.328 22.4237 191.328 12.9809V12.1621H199.351C199.368 12.3712 199.395 12.5977 199.395 12.8329C199.395 14.7057 199.395 16.5873 199.395 18.4602C199.395 26.1695 199.395 33.8788 199.395 41.5881C199.395 44.7763 198.375 47.5726 196.145 49.8723C194.063 52.0239 191.494 53.1564 188.514 53.3741C188.262 53.3916 188.001 53.3741 187.704 53.3741L187.713 53.3654Z" fill="#A81417"></path><path d="M191.372 8.30303V1.0293H199.299C199.43 1.51712 199.447 7.69326 199.317 8.30303H191.372Z" fill="#A81417"></path><path d="M170.701 4.61058C171.145 5.32488 171.563 5.98692 172.034 6.73608C171.441 6.79705 170.936 6.78834 170.431 6.73608C170.326 6.73608 170.213 6.57057 170.144 6.46603C169.847 6.03048 169.542 5.60364 169.29 5.15066C169.055 4.72382 168.741 4.60187 168.236 4.76738V6.70994H166.72V0.324736C166.894 0.307314 167.051 0.281181 167.208 0.281181C167.974 0.281181 168.741 0.263759 169.508 0.281181C169.891 0.289892 170.283 0.316025 170.64 0.43798C171.459 0.699312 171.938 1.30909 172.069 2.15406C172.199 3.01645 171.929 3.74818 171.224 4.28827C171.084 4.3928 170.928 4.47991 170.718 4.61058H170.701ZM168.236 3.29521C168.863 3.29521 169.455 3.32134 170.056 3.2865C170.466 3.26036 170.701 2.94676 170.727 2.55477C170.753 2.17148 170.492 1.74464 170.1 1.71851C169.49 1.66624 168.872 1.70108 168.245 1.70108V3.29521H168.236Z" fill="#A81417"></path><path d="M132.939 4.60209C133.383 5.3164 133.802 5.97844 134.272 6.74501C133.68 6.78857 133.166 6.78857 132.66 6.74501C132.556 6.7363 132.443 6.5795 132.373 6.46626C132.077 6.0307 131.772 5.60386 131.519 5.15089C131.284 4.72405 130.962 4.6108 130.465 4.7676V6.71888H129.045C128.915 6.30946 128.871 1.18736 128.993 0.368517C129.028 0.342383 129.054 0.298828 129.089 0.298828C130.239 0.307539 131.389 0.272695 132.53 0.359806C133.418 0.429494 134.098 1.11767 134.272 1.98006C134.455 2.90343 134.22 3.69614 133.453 4.28849C133.314 4.39303 133.157 4.48014 132.948 4.6108L132.939 4.60209ZM130.483 3.30414C131.101 3.30414 131.659 3.33028 132.216 3.30414C132.687 3.2693 132.957 2.9557 132.957 2.52015C132.957 2.10202 132.669 1.72744 132.234 1.70131C131.659 1.66646 131.084 1.6926 130.483 1.6926V3.31285V3.30414Z" fill="#A81417"></path><path d="M145.789 0.333984C147.653 0.333984 149.151 1.79744 149.16 3.64419C149.169 5.49964 147.688 6.99794 145.841 7.00665C143.977 7.00665 142.487 5.5432 142.47 3.69645C142.461 1.841 143.933 0.342695 145.789 0.342695V0.333984ZM147.766 3.6529C147.766 2.58144 146.869 1.69291 145.806 1.69291C144.744 1.69291 143.846 2.59015 143.838 3.6529C143.838 4.75049 144.744 5.65644 145.832 5.63902C146.913 5.6216 147.775 4.74178 147.766 3.6529Z" fill="#A81417"></path><path d="M140.978 0.316406V6.7713H139.497V4.26252H137.476V6.73646H135.995V0.325117H137.407C137.572 1.11782 137.38 1.94537 137.52 2.79035H139.489V0.316406H140.978Z" fill="#A81417"></path><path d="M117.172 4.69791V6.7363H115.734C115.604 6.33559 115.56 1.43127 115.673 0.368517C115.708 0.342383 115.734 0.298828 115.769 0.298828C116.919 0.307539 118.069 0.281406 119.21 0.351094C120.073 0.403361 120.648 0.960869 120.926 1.76229C121.432 3.18219 120.465 4.6108 118.958 4.6892C118.4 4.71533 117.834 4.6892 117.172 4.6892V4.69791ZM117.198 3.29543C117.834 3.29543 118.417 3.32157 118.992 3.28672C119.419 3.26059 119.637 2.97312 119.663 2.5637C119.689 2.14557 119.454 1.77971 119.053 1.71002C118.444 1.6142 117.825 1.65775 117.207 1.68389V3.28672L117.198 3.29543Z" fill="#A81417"></path><path d="M163.636 0.306731H165.012C165.029 0.480952 165.055 0.62904 165.055 0.785839C165.055 1.87472 165.038 2.9636 165.055 4.05249C165.082 5.67274 163.636 6.72678 162.425 6.77034C160.918 6.81389 159.62 5.74243 159.541 4.26155C159.472 2.97231 159.524 1.68308 159.524 0.376419C159.968 0.176065 160.404 0.324153 160.892 0.271887C160.909 0.489663 160.935 0.663884 160.935 0.838105C160.935 1.84859 160.935 2.85907 160.935 3.86955C160.935 4.36608 161.075 4.78421 161.493 5.08039C161.919 5.37657 162.381 5.45497 162.86 5.21106C163.348 4.96715 163.636 4.59257 163.627 4.01764C163.618 3.02458 163.627 2.04023 163.627 1.04717C163.627 0.829394 163.627 0.611618 163.627 0.315442L163.636 0.306731Z" fill="#A81417"></path><path d="M127.475 6.73646H125.742C125.698 6.68419 125.628 6.63192 125.611 6.56224C125.437 5.98731 125.054 5.79566 124.47 5.87406C124.069 5.92633 123.66 5.90019 123.259 5.87406C122.911 5.85664 122.667 5.94375 122.553 6.29219C122.431 6.68419 122.179 6.81486 121.778 6.78001C121.404 6.74517 121.029 6.78001 120.532 6.78001C121.708 4.59354 122.832 2.51159 124.017 0.316406C125.193 2.50288 126.317 4.59354 127.475 6.75388V6.73646ZM124.601 4.6458C124.4 4.24509 124.235 3.94021 124.017 3.51336C123.799 3.9315 123.634 4.2538 123.425 4.6458H124.592H124.601Z" fill="#A81417"></path><path d="M159.133 6.7363H157.338C157.182 5.88262 156.572 5.81293 155.849 5.87391C155.387 5.91746 154.925 5.87391 154.455 5.87391C154.289 6.16137 154.141 6.4227 153.976 6.72759H152.234C153.357 4.58467 154.507 2.49401 155.683 0.298828C156.851 2.47659 157.974 4.56725 159.142 6.72759L159.133 6.7363ZM156.284 4.66307C156.058 4.24494 155.884 3.93134 155.657 3.52192C155.439 3.96618 155.291 4.28849 155.108 4.66307H156.284Z" fill="#A81417"></path></g><path d="M92.2493 65.9995C92.3709 65.6253 92.9003 65.6253 93.0219 65.9995L94.186 69.5821C94.2403 69.7495 94.3963 69.8628 94.5723 69.8628H98.3393C98.7328 69.8628 98.8964 70.3664 98.578 70.5977L95.5305 72.8118C95.3881 72.9153 95.3285 73.0986 95.3829 73.266L96.547 76.8486C96.6686 77.2228 96.2402 77.534 95.9219 77.3028L92.8743 75.0886C92.732 74.9851 92.5392 74.9851 92.3968 75.0886L89.3493 77.3028C89.0309 77.534 88.6026 77.2228 88.7242 76.8486L89.8882 73.266C89.9426 73.0986 89.883 72.9153 89.7407 72.8118L86.6931 70.5977C86.3748 70.3664 86.5384 69.8628 86.9319 69.8628H90.6989C90.8748 69.8628 91.0308 69.7495 91.0852 69.5821L92.2493 65.9995Z" fill="#FFC20E"></path><path d="M106.873 65.9995C106.994 65.6253 107.524 65.6253 107.645 65.9995L108.809 69.5821C108.864 69.7495 109.02 69.8628 109.196 69.8628H112.963C113.356 69.8628 113.52 70.3664 113.201 70.5977L110.154 72.8118C110.012 72.9153 109.952 73.0986 110.006 73.266L111.17 76.8486C111.292 77.2228 110.864 77.534 110.545 77.3028L107.498 75.0886C107.355 74.9851 107.163 74.9851 107.02 75.0886L103.973 77.3028C103.654 77.534 103.226 77.2228 103.348 76.8486L104.512 73.266C104.566 73.0986 104.506 72.9153 104.364 72.8118L101.317 70.5977C100.998 70.3664 101.162 69.8628 101.555 69.8628H105.322C105.498 69.8628 105.654 69.7495 105.709 69.5821L106.873 65.9995Z" fill="#FFC20E"></path><path d="M121.496 65.9995C121.618 65.6253 122.147 65.6253 122.269 65.9995L123.433 69.5821C123.487 69.7495 123.643 69.8628 123.819 69.8628H127.586C127.98 69.8628 128.143 70.3664 127.825 70.5977L124.777 72.8118C124.635 72.9153 124.575 73.0986 124.63 73.266L125.794 76.8486C125.916 77.2228 125.487 77.534 125.169 77.3028L122.121 75.0886C121.979 74.9851 121.786 74.9851 121.644 75.0886L118.596 77.3028C118.278 77.534 117.85 77.2228 117.971 76.8486L119.135 73.266C119.19 73.0986 119.13 72.9153 118.988 72.8118L115.94 70.5977C115.622 70.3664 115.785 69.8628 116.179 69.8628H119.946C120.122 69.8628 120.278 69.7495 120.332 69.5821L121.496 65.9995Z" fill="#FFC20E"></path><path d="M136.12 65.9995C136.241 65.6253 136.771 65.6253 136.893 65.9995L138.057 69.5821C138.111 69.7495 138.267 69.8628 138.443 69.8628H142.21C142.603 69.8628 142.767 70.3664 142.449 70.5977L139.401 72.8118C139.259 72.9153 139.199 73.0986 139.254 73.266L140.418 76.8486C140.539 77.2228 140.111 77.534 139.792 77.3028L136.745 75.0886C136.603 74.9851 136.41 74.9851 136.267 75.0886L133.22 77.3028C132.902 77.534 132.473 77.2228 132.595 76.8486L133.759 73.266C133.813 73.0986 133.754 72.9153 133.611 72.8118L130.564 70.5977C130.245 70.3664 130.409 69.8628 130.802 69.8628H134.569C134.745 69.8628 134.901 69.7495 134.956 69.5821L136.12 65.9995Z" fill="#FFC20E"></path><path d="M151.129 66.1251L152.294 69.7077C152.402 70.0424 152.714 70.269 153.066 70.269H156.833L153.786 72.4832C153.501 72.6901 153.382 73.0568 153.49 73.3915L154.655 76.9741L151.607 74.76C151.322 74.5531 150.937 74.5531 150.652 74.76L147.604 76.9741L148.768 73.3915C148.877 73.0568 148.758 72.6901 148.473 72.4832L145.426 70.269L149.193 70.269C149.545 70.269 149.857 70.0424 149.965 69.7077L151.129 66.1251Z" fill="url(#paint0_linear_680_16534)" stroke="#FFC20E" stroke-width="0.812414"></path><path d="M162.264 74.3926V73.0521L166.249 67.349H168.235V72.9059H169.307V74.3926H168.235V76.123H166.529V74.3926H162.264ZM166.639 69.1769L164.14 72.9059H166.639V69.1769ZM171.344 76.2084C171.035 76.2084 170.779 76.1149 170.576 75.9281C170.381 75.7331 170.284 75.4934 170.284 75.2091C170.284 74.9247 170.381 74.6891 170.576 74.5023C170.779 74.3073 171.035 74.2098 171.344 74.2098C171.645 74.2098 171.892 74.3073 172.087 74.5023C172.282 74.6891 172.38 74.9247 172.38 75.2091C172.38 75.4934 172.282 75.7331 172.087 75.9281C171.892 76.1149 171.645 76.2084 171.344 76.2084ZM179.213 68.531L175.972 76.123H174.241L177.507 68.726H173.34V67.2637H179.213V68.531Z" fill="#24272C"></path><path d="M114.588 99.6775C114.588 98.7297 114.503 97.8183 114.345 96.9434H101.756V102.12H108.949C108.633 103.785 107.686 105.194 106.264 106.142V109.508H110.602C113.13 107.175 114.588 103.748 114.588 99.6775Z" fill="#4285F4"></path><path d="M101.757 112.739C105.366 112.739 108.392 111.548 110.603 109.507L106.265 106.14C105.074 106.942 103.555 107.429 101.757 107.429C98.2816 107.429 95.3287 105.083 94.2715 101.924H89.824V105.375C92.0234 109.737 96.5317 112.739 101.757 112.739Z" fill="#57D063"></path><path d="M94.2718 101.911C94.0045 101.109 93.8465 100.259 93.8465 99.3717C93.8465 98.4846 94.0045 97.634 94.2718 96.832V93.3809H89.8243C88.9129 95.1793 88.3904 97.2087 88.3904 99.3717C88.3904 101.535 88.9129 103.564 89.8243 105.362L93.2875 102.665L94.2718 101.911Z" fill="#FBBC05"></path><path d="M101.757 91.3283C103.726 91.3283 105.475 92.0088 106.873 93.3212L110.701 89.4934C108.38 87.3304 105.366 86.0059 101.757 86.0059C96.5317 86.0059 92.0234 89.0073 89.824 93.382L94.2715 96.833C95.3287 93.6736 98.2816 91.3283 101.757 91.3283Z" fill="#EA4335"></path><path d="M129.592 100.552C128.795 100.552 128.059 100.408 127.382 100.119C126.705 99.8305 126.112 99.4274 125.605 98.9097C125.097 98.3921 124.699 97.7848 124.41 97.088C124.131 96.3912 123.992 95.6296 123.992 94.8034C123.992 93.9772 124.126 93.2156 124.395 92.5188C124.674 91.812 125.062 91.2048 125.56 90.6971C126.068 90.1794 126.66 89.7812 127.337 89.5025C128.014 89.2138 128.75 89.0695 129.547 89.0695C130.343 89.0695 131.055 89.2039 131.682 89.4727C132.319 89.7414 132.857 90.0998 133.295 90.5478C133.733 90.9858 134.046 91.4686 134.235 91.9962L132.429 92.8622C132.22 92.2849 131.866 91.817 131.369 91.4586C130.871 91.1002 130.264 90.9211 129.547 90.9211C128.85 90.9211 128.233 91.0853 127.695 91.4138C127.168 91.7423 126.755 92.1953 126.456 92.7726C126.167 93.35 126.023 94.0269 126.023 94.8034C126.023 95.5799 126.172 96.2618 126.471 96.8491C126.779 97.4265 127.202 97.8794 127.74 98.2079C128.278 98.5364 128.895 98.7007 129.592 98.7007C130.159 98.7007 130.682 98.5912 131.159 98.3722C131.637 98.1432 132.021 97.8246 132.309 97.4165C132.598 96.9984 132.742 96.5056 132.742 95.9382V95.0871L133.668 95.8934H129.547V94.1762H134.773V95.2962C134.773 96.1523 134.629 96.9088 134.34 97.5658C134.051 98.2228 133.658 98.7753 133.16 99.2233C132.673 99.6613 132.12 99.9948 131.503 100.224C130.886 100.443 130.249 100.552 129.592 100.552ZM140.188 100.552C139.391 100.552 138.665 100.368 138.008 99.9997C137.361 99.6314 136.843 99.1287 136.455 98.4916C136.076 97.8545 135.887 97.1278 135.887 96.3115C135.887 95.4952 136.076 94.7686 136.455 94.1315C136.843 93.4944 137.361 92.9916 138.008 92.6233C138.655 92.255 139.381 92.0708 140.188 92.0708C140.984 92.0708 141.706 92.255 142.353 92.6233C143 92.9916 143.513 93.4944 143.891 94.1315C144.279 94.7586 144.473 95.4853 144.473 96.3115C144.473 97.1278 144.279 97.8545 143.891 98.4916C143.503 99.1287 142.985 99.6314 142.338 99.9997C141.691 100.368 140.974 100.552 140.188 100.552ZM140.188 98.7604C140.626 98.7604 141.009 98.6559 141.337 98.4468C141.676 98.2378 141.94 97.9491 142.129 97.5808C142.328 97.2025 142.427 96.7794 142.427 96.3115C142.427 95.8337 142.328 95.4156 142.129 95.0572C141.94 94.6889 141.676 94.4002 141.337 94.1912C141.009 93.9722 140.626 93.8627 140.188 93.8627C139.74 93.8627 139.346 93.9722 139.008 94.1912C138.67 94.4002 138.401 94.6889 138.202 95.0572C138.013 95.4156 137.918 95.8337 137.918 96.3115C137.918 96.7794 138.013 97.2025 138.202 97.5808C138.401 97.9491 138.67 98.2378 139.008 98.4468C139.346 98.6559 139.74 98.7604 140.188 98.7604ZM149.928 100.552C149.132 100.552 148.405 100.368 147.748 99.9997C147.101 99.6314 146.584 99.1287 146.195 98.4916C145.817 97.8545 145.628 97.1278 145.628 96.3115C145.628 95.4952 145.817 94.7686 146.195 94.1315C146.584 93.4944 147.101 92.9916 147.748 92.6233C148.395 92.255 149.122 92.0708 149.928 92.0708C150.725 92.0708 151.447 92.255 152.094 92.6233C152.741 92.9916 153.253 93.4944 153.632 94.1315C154.02 94.7586 154.214 95.4853 154.214 96.3115C154.214 97.1278 154.02 97.8545 153.632 98.4916C153.243 99.1287 152.726 99.6314 152.079 99.9997C151.432 100.368 150.715 100.552 149.928 100.552ZM149.928 98.7604C150.366 98.7604 150.75 98.6559 151.078 98.4468C151.417 98.2378 151.68 97.9491 151.87 97.5808C152.069 97.2025 152.168 96.7794 152.168 96.3115C152.168 95.8337 152.069 95.4156 151.87 95.0572C151.68 94.6889 151.417 94.4002 151.078 94.1912C150.75 93.9722 150.366 93.8627 149.928 93.8627C149.481 93.8627 149.087 93.9722 148.749 94.1912C148.41 94.4002 148.142 94.6889 147.943 95.0572C147.753 95.4156 147.659 95.8337 147.659 96.3115C147.659 96.7794 147.753 97.2025 147.943 97.5808C148.142 97.9491 148.41 98.2378 148.749 98.4468C149.087 98.6559 149.481 98.7604 149.928 98.7604ZM159.639 103.658C159.032 103.658 158.47 103.559 157.952 103.359C157.434 103.16 156.987 102.882 156.608 102.523C156.24 102.175 155.971 101.762 155.802 101.284L157.624 100.597C157.743 100.975 157.977 101.279 158.325 101.508C158.684 101.747 159.122 101.866 159.639 101.866C160.038 101.866 160.386 101.792 160.685 101.642C160.993 101.493 161.232 101.274 161.401 100.985C161.571 100.707 161.655 100.368 161.655 99.9699V98.1183L162.029 98.5663C161.75 99.054 161.377 99.4224 160.909 99.6712C160.441 99.9201 159.908 100.045 159.311 100.045C158.554 100.045 157.877 99.8703 157.28 99.5219C156.683 99.1735 156.215 98.6957 155.877 98.0884C155.538 97.4812 155.369 96.7993 155.369 96.0428C155.369 95.2762 155.538 94.5943 155.877 93.9971C156.215 93.3998 156.678 92.9319 157.265 92.5935C157.853 92.245 158.52 92.0708 159.266 92.0708C159.873 92.0708 160.406 92.2002 160.864 92.4591C161.332 92.7079 161.72 93.0713 162.029 93.5491L161.76 94.0419V92.25H163.611V99.9699C163.611 100.677 163.437 101.309 163.089 101.866C162.75 102.424 162.282 102.862 161.685 103.18C161.098 103.499 160.416 103.658 159.639 103.658ZM159.55 98.2378C159.968 98.2378 160.331 98.1482 160.64 97.969C160.958 97.7798 161.207 97.521 161.386 97.1925C161.566 96.864 161.655 96.4857 161.655 96.0577C161.655 95.6396 161.561 95.2663 161.372 94.9378C161.192 94.5993 160.944 94.3355 160.625 94.1464C160.316 93.9572 159.958 93.8627 159.55 93.8627C159.142 93.8627 158.773 93.9572 158.445 94.1464C158.116 94.3355 157.858 94.5993 157.668 94.9378C157.489 95.2663 157.4 95.6396 157.4 96.0577C157.4 96.4758 157.489 96.8491 157.668 97.1776C157.858 97.5061 158.111 97.7649 158.43 97.9541C158.758 98.1432 159.132 98.2378 159.55 98.2378ZM165.438 100.373V89.0695H167.394V100.373H165.438ZM173.053 100.552C172.217 100.552 171.485 100.363 170.858 99.9848C170.231 99.6065 169.743 99.0939 169.394 98.4468C169.046 97.7998 168.872 97.083 168.872 96.2966C168.872 95.4803 169.046 94.7586 169.394 94.1315C169.753 93.4944 170.236 92.9916 170.843 92.6233C171.46 92.255 172.147 92.0708 172.904 92.0708C173.541 92.0708 174.098 92.1754 174.576 92.3844C175.064 92.5935 175.477 92.8821 175.815 93.2505C176.154 93.6188 176.413 94.0419 176.592 94.5197C176.771 94.9876 176.861 95.4952 176.861 96.0428C176.861 96.1821 176.851 96.3265 176.831 96.4758C176.821 96.6251 176.796 96.7545 176.756 96.864H170.485V95.3708H175.651L174.725 96.0726C174.815 95.6147 174.79 95.2066 174.651 94.8482C174.521 94.4898 174.302 94.2061 173.994 93.9971C173.695 93.788 173.332 93.6835 172.904 93.6835C172.495 93.6835 172.132 93.788 171.813 93.9971C171.495 94.1962 171.251 94.4948 171.082 94.893C170.923 95.2812 170.863 95.7541 170.903 96.3115C170.863 96.8093 170.928 97.2522 171.097 97.6405C171.276 98.0188 171.535 98.3124 171.873 98.5215C172.222 98.7305 172.62 98.835 173.068 98.835C173.516 98.835 173.894 98.7405 174.203 98.5513C174.521 98.3622 174.77 98.1084 174.949 97.7898L176.532 98.5663C176.373 98.9545 176.124 99.2979 175.785 99.5966C175.447 99.8952 175.044 100.129 174.576 100.298C174.118 100.468 173.61 100.552 173.053 100.552Z" fill="#6A6A6A"></path><path d="M126.709 112.463C126.455 112.463 126.229 112.415 126.03 112.321C125.831 112.221 125.674 112.087 125.559 111.918C125.445 111.748 125.388 111.554 125.388 111.335C125.388 111.126 125.433 110.937 125.522 110.768C125.612 110.594 125.751 110.447 125.94 110.327C126.129 110.208 126.371 110.123 126.664 110.074L128.232 109.812V110.32L126.799 110.559C126.51 110.609 126.301 110.701 126.172 110.835C126.047 110.969 125.985 111.129 125.985 111.313C125.985 111.492 126.055 111.644 126.194 111.768C126.338 111.893 126.523 111.955 126.747 111.955C127.02 111.955 127.259 111.898 127.463 111.783C127.667 111.664 127.827 111.504 127.941 111.305C128.056 111.106 128.113 110.885 128.113 110.641V109.626C128.113 109.387 128.026 109.193 127.852 109.043C127.677 108.894 127.451 108.819 127.172 108.819C126.928 108.819 126.714 108.881 126.53 109.006C126.346 109.125 126.209 109.282 126.119 109.476L125.612 109.2C125.686 109.031 125.803 108.876 125.963 108.737C126.127 108.598 126.314 108.488 126.523 108.409C126.732 108.324 126.948 108.282 127.172 108.282C127.466 108.282 127.725 108.339 127.949 108.453C128.178 108.568 128.354 108.727 128.479 108.931C128.608 109.13 128.673 109.362 128.673 109.626V112.373H128.113V111.574L128.195 111.656C128.125 111.806 128.016 111.943 127.866 112.067C127.722 112.186 127.55 112.283 127.351 112.358C127.157 112.428 126.943 112.463 126.709 112.463ZM130.819 112.373L129.259 108.371H129.886L131.2 111.88H130.998L132.32 108.371H132.955L131.379 112.373H130.819ZM135.357 112.463C134.984 112.463 134.646 112.373 134.342 112.194C134.043 112.01 133.807 111.758 133.633 111.44C133.459 111.121 133.371 110.76 133.371 110.357C133.371 109.954 133.456 109.598 133.625 109.29C133.795 108.976 134.023 108.73 134.312 108.55C134.606 108.371 134.934 108.282 135.298 108.282C135.586 108.282 135.843 108.336 136.067 108.446C136.296 108.55 136.49 108.695 136.649 108.879C136.808 109.058 136.93 109.262 137.015 109.491C137.099 109.715 137.142 109.947 137.142 110.186C137.142 110.235 137.139 110.293 137.134 110.357C137.129 110.417 137.122 110.479 137.112 110.544H133.73V110.021H136.791L136.522 110.245C136.567 109.971 136.535 109.728 136.425 109.514C136.321 109.295 136.169 109.123 135.97 108.998C135.771 108.869 135.547 108.804 135.298 108.804C135.049 108.804 134.817 108.869 134.603 108.998C134.394 109.128 134.23 109.309 134.111 109.543C133.991 109.772 133.944 110.046 133.969 110.365C133.944 110.683 133.994 110.962 134.118 111.201C134.247 111.435 134.422 111.616 134.641 111.746C134.865 111.875 135.104 111.94 135.357 111.94C135.651 111.94 135.897 111.87 136.097 111.731C136.296 111.592 136.457 111.417 136.582 111.208L137.06 111.462C136.98 111.641 136.858 111.808 136.694 111.962C136.53 112.112 136.333 112.234 136.104 112.328C135.88 112.418 135.631 112.463 135.357 112.463ZM138.129 112.373V108.371H138.689V109.028L138.614 108.931C138.709 108.742 138.851 108.593 139.04 108.483C139.234 108.374 139.468 108.319 139.742 108.319H139.996V108.879H139.645C139.356 108.879 139.125 108.969 138.95 109.148C138.776 109.327 138.689 109.581 138.689 109.909V112.373H138.129ZM141.809 112.463C141.555 112.463 141.329 112.415 141.13 112.321C140.93 112.221 140.774 112.087 140.659 111.918C140.545 111.748 140.487 111.554 140.487 111.335C140.487 111.126 140.532 110.937 140.622 110.768C140.711 110.594 140.851 110.447 141.04 110.327C141.229 110.208 141.471 110.123 141.764 110.074L143.332 109.812V110.32L141.899 110.559C141.61 110.609 141.401 110.701 141.271 110.835C141.147 110.969 141.085 111.129 141.085 111.313C141.085 111.492 141.154 111.644 141.294 111.768C141.438 111.893 141.622 111.955 141.846 111.955C142.12 111.955 142.359 111.898 142.563 111.783C142.767 111.664 142.926 111.504 143.041 111.305C143.155 111.106 143.213 110.885 143.213 110.641V109.626C143.213 109.387 143.125 109.193 142.951 109.043C142.777 108.894 142.551 108.819 142.272 108.819C142.028 108.819 141.814 108.881 141.63 109.006C141.446 109.125 141.309 109.282 141.219 109.476L140.711 109.2C140.786 109.031 140.903 108.876 141.062 108.737C141.227 108.598 141.413 108.488 141.622 108.409C141.831 108.324 142.048 108.282 142.272 108.282C142.566 108.282 142.824 108.339 143.048 108.453C143.277 108.568 143.454 108.727 143.578 108.931C143.708 109.13 143.773 109.362 143.773 109.626V112.373H143.213V111.574L143.295 111.656C143.225 111.806 143.116 111.943 142.966 112.067C142.822 112.186 142.65 112.283 142.451 112.358C142.257 112.428 142.043 112.463 141.809 112.463ZM146.821 114.016C146.547 114.016 146.293 113.973 146.059 113.889C145.83 113.804 145.631 113.687 145.462 113.538C145.298 113.393 145.171 113.224 145.081 113.03L145.596 112.754C145.676 112.943 145.818 113.107 146.022 113.247C146.226 113.386 146.487 113.456 146.806 113.456C147.05 113.456 147.274 113.408 147.478 113.314C147.682 113.219 147.846 113.08 147.97 112.896C148.095 112.712 148.157 112.485 148.157 112.216V111.328L148.247 111.41C148.107 111.699 147.901 111.923 147.627 112.082C147.353 112.236 147.055 112.313 146.731 112.313C146.358 112.313 146.022 112.224 145.723 112.045C145.425 111.865 145.188 111.624 145.014 111.32C144.845 111.012 144.76 110.671 144.76 110.297C144.76 109.919 144.845 109.578 145.014 109.275C145.188 108.971 145.422 108.73 145.716 108.55C146.014 108.371 146.353 108.282 146.731 108.282C147.055 108.282 147.348 108.356 147.612 108.506C147.881 108.655 148.092 108.857 148.247 109.11L148.157 109.267V108.371H148.717V112.216C148.717 112.56 148.635 112.866 148.471 113.135C148.311 113.408 148.087 113.622 147.799 113.777C147.515 113.936 147.189 114.016 146.821 114.016ZM146.761 111.753C147.02 111.753 147.254 111.689 147.463 111.559C147.672 111.425 147.839 111.248 147.963 111.029C148.092 110.805 148.157 110.561 148.157 110.297C148.157 110.034 148.092 109.792 147.963 109.573C147.839 109.349 147.672 109.173 147.463 109.043C147.254 108.909 147.02 108.842 146.761 108.842C146.497 108.842 146.258 108.909 146.044 109.043C145.83 109.173 145.661 109.347 145.537 109.566C145.417 109.785 145.357 110.029 145.357 110.297C145.357 110.561 145.417 110.805 145.537 111.029C145.661 111.248 145.828 111.425 146.037 111.559C146.251 111.689 146.492 111.753 146.761 111.753ZM151.689 112.463C151.316 112.463 150.978 112.373 150.674 112.194C150.375 112.01 150.139 111.758 149.965 111.44C149.79 111.121 149.703 110.76 149.703 110.357C149.703 109.954 149.788 109.598 149.957 109.29C150.126 108.976 150.355 108.73 150.644 108.55C150.938 108.371 151.266 108.282 151.63 108.282C151.918 108.282 152.175 108.336 152.399 108.446C152.628 108.55 152.822 108.695 152.981 108.879C153.14 109.058 153.262 109.262 153.347 109.491C153.431 109.715 153.474 109.947 153.474 110.186C153.474 110.235 153.471 110.293 153.466 110.357C153.461 110.417 153.454 110.479 153.444 110.544H150.062V110.021H153.123L152.854 110.245C152.899 109.971 152.866 109.728 152.757 109.514C152.652 109.295 152.501 109.123 152.302 108.998C152.102 108.869 151.878 108.804 151.63 108.804C151.381 108.804 151.149 108.869 150.935 108.998C150.726 109.128 150.562 109.309 150.442 109.543C150.323 109.772 150.276 110.046 150.301 110.365C150.276 110.683 150.326 110.962 150.45 111.201C150.579 111.435 150.754 111.616 150.973 111.746C151.197 111.875 151.435 111.94 151.689 111.94C151.983 111.94 152.229 111.87 152.428 111.731C152.628 111.592 152.789 111.417 152.914 111.208L153.392 111.462C153.312 111.641 153.19 111.808 153.026 111.962C152.861 112.112 152.665 112.234 152.436 112.328C152.212 112.418 151.963 112.463 151.689 112.463ZM155.73 112.373V108.371H156.29V109.028L156.215 108.931C156.309 108.742 156.451 108.593 156.64 108.483C156.835 108.374 157.069 108.319 157.342 108.319H157.596V108.879H157.245C156.957 108.879 156.725 108.969 156.551 109.148C156.377 109.327 156.29 109.581 156.29 109.909V112.373H155.73ZM159.41 112.463C159.156 112.463 158.929 112.415 158.73 112.321C158.531 112.221 158.374 112.087 158.26 111.918C158.145 111.748 158.088 111.554 158.088 111.335C158.088 111.126 158.133 110.937 158.222 110.768C158.312 110.594 158.451 110.447 158.641 110.327C158.83 110.208 159.071 110.123 159.365 110.074L160.933 109.812V110.32L159.499 110.559C159.21 110.609 159.001 110.701 158.872 110.835C158.748 110.969 158.685 111.129 158.685 111.313C158.685 111.492 158.755 111.644 158.894 111.768C159.039 111.893 159.223 111.955 159.447 111.955C159.721 111.955 159.96 111.898 160.164 111.783C160.368 111.664 160.527 111.504 160.641 111.305C160.756 111.106 160.813 110.885 160.813 110.641V109.626C160.813 109.387 160.726 109.193 160.552 109.043C160.378 108.894 160.151 108.819 159.872 108.819C159.629 108.819 159.415 108.881 159.23 109.006C159.046 109.125 158.909 109.282 158.82 109.476L158.312 109.2C158.387 109.031 158.504 108.876 158.663 108.737C158.827 108.598 159.014 108.488 159.223 108.409C159.432 108.324 159.648 108.282 159.872 108.282C160.166 108.282 160.425 108.339 160.649 108.453C160.878 108.568 161.055 108.727 161.179 108.931C161.308 109.13 161.373 109.362 161.373 109.626V112.373H160.813V111.574L160.895 111.656C160.826 111.806 160.716 111.943 160.567 112.067C160.422 112.186 160.251 112.283 160.052 112.358C159.857 112.428 159.643 112.463 159.41 112.463ZM163.982 112.418C163.624 112.418 163.348 112.313 163.154 112.104C162.96 111.895 162.863 111.597 162.863 111.208V108.931H162.123V108.371H162.31C162.479 108.371 162.614 108.317 162.713 108.207C162.813 108.093 162.863 107.951 162.863 107.781V107.445H163.423V108.371H164.304V108.931H163.423V111.208C163.423 111.343 163.442 111.462 163.482 111.567C163.522 111.666 163.589 111.746 163.684 111.806C163.783 111.865 163.915 111.895 164.08 111.895C164.119 111.895 164.167 111.893 164.221 111.888C164.276 111.883 164.323 111.878 164.363 111.873V112.373C164.304 112.388 164.236 112.398 164.162 112.403C164.087 112.413 164.027 112.418 163.982 112.418ZM165.346 112.373V108.371H165.906V112.373H165.346ZM165.346 107.632V106.811H165.906V107.632H165.346ZM167.053 112.373V108.371H167.613V109.148L167.486 109.118C167.585 108.859 167.747 108.655 167.971 108.506C168.2 108.356 168.464 108.282 168.762 108.282C169.046 108.282 169.3 108.346 169.524 108.476C169.753 108.605 169.932 108.784 170.061 109.013C170.196 109.237 170.263 109.491 170.263 109.775V112.373H169.703V109.991C169.703 109.747 169.658 109.541 169.569 109.372C169.484 109.202 169.362 109.073 169.203 108.983C169.049 108.889 168.869 108.842 168.665 108.842C168.461 108.842 168.28 108.889 168.12 108.983C167.961 109.073 167.837 109.205 167.747 109.379C167.657 109.548 167.613 109.752 167.613 109.991V112.373H167.053ZM173.229 114.016C172.955 114.016 172.701 113.973 172.467 113.889C172.238 113.804 172.039 113.687 171.87 113.538C171.706 113.393 171.579 113.224 171.489 113.03L172.004 112.754C172.084 112.943 172.226 113.107 172.43 113.247C172.634 113.386 172.895 113.456 173.214 113.456C173.458 113.456 173.682 113.408 173.886 113.314C174.09 113.219 174.254 113.08 174.379 112.896C174.503 112.712 174.565 112.485 174.565 112.216V111.328L174.655 111.41C174.515 111.699 174.309 111.923 174.035 112.082C173.761 112.236 173.463 112.313 173.139 112.313C172.766 112.313 172.43 112.224 172.131 112.045C171.833 111.865 171.596 111.624 171.422 111.32C171.253 111.012 171.168 110.671 171.168 110.297C171.168 109.919 171.253 109.578 171.422 109.275C171.596 108.971 171.83 108.73 172.124 108.55C172.422 108.371 172.761 108.282 173.139 108.282C173.463 108.282 173.756 108.356 174.02 108.506C174.289 108.655 174.501 108.857 174.655 109.11L174.565 109.267V108.371H175.125V112.216C175.125 112.56 175.043 112.866 174.879 113.135C174.72 113.408 174.496 113.622 174.207 113.777C173.923 113.936 173.597 114.016 173.229 114.016ZM173.169 111.753C173.428 111.753 173.662 111.689 173.871 111.559C174.08 111.425 174.247 111.248 174.371 111.029C174.501 110.805 174.565 110.561 174.565 110.297C174.565 110.034 174.501 109.792 174.371 109.573C174.247 109.349 174.08 109.173 173.871 109.043C173.662 108.909 173.428 108.842 173.169 108.842C172.905 108.842 172.666 108.909 172.452 109.043C172.238 109.173 172.069 109.347 171.945 109.566C171.825 109.785 171.765 110.029 171.765 110.297C171.765 110.561 171.825 110.805 171.945 111.029C172.069 111.248 172.236 111.425 172.445 111.559C172.659 111.689 172.9 111.753 173.169 111.753Z" fill="#6A6A6A"></path><defs><linearGradient id="paint0_linear_680_16534" x1="143.818" y1="72.1223" x2="158.441" y2="72.1223" gradientUnits="userSpaceOnUse"><stop offset="0.505208" stop-color="#FFC20E"></stop><stop offset="0.505308" stop-color="#FFC20E" stop-opacity="0"></stop></linearGradient><clipPath id="clip0_680_16534"><rect width="264.633" height="53.1113" fill="white" transform="translate(0.190674 0.263672)"></rect></clipPath></defs></svg>