<svg xmlns="http://www.w3.org/2000/svg" width="475" height="499" viewBox="0 0 475 499" fill="none"><circle cx="234.508" cy="258.584" r="231.267" stroke="#A81417" stroke-width="1.86862"></circle><circle cx="234.509" cy="258.584" r="169.171" stroke="url(#paint0_linear_680_16432)" stroke-width="1.86862"></circle><g clip-path="url(#clip0_680_16432)"><rect x="327.299" y="354.492" width="44.8468" height="44.8468" rx="22.4234" fill="#A81417"></rect><rect x="344.816" y="375.472" width="9.84514" height="18.4929" rx="1.98838" fill="white" stroke="#24272C" stroke-width="0.57731" stroke-linecap="round"></rect><path d="M345.09 387.399V381.488H354.991C354.245 384.519 349.799 387.563 345.09 387.399Z" fill="#7E7E7E" fill-opacity="0.45"></path><path d="M343.66 374.632C343.66 376.319 342.137 377.735 340.196 377.735C338.255 377.735 336.732 376.319 336.732 374.632C336.732 372.945 338.255 371.529 340.196 371.529C342.137 371.529 343.66 372.945 343.66 374.632Z" fill="white" stroke="#24272C" stroke-width="0.57731"></path><path d="M355.638 374.632C355.638 376.319 357.16 377.735 359.101 377.735C361.043 377.735 362.565 376.319 362.565 374.632C362.565 372.945 361.043 371.529 359.101 371.529C357.16 371.529 355.638 372.945 355.638 374.632Z" fill="white" stroke="#24272C" stroke-width="0.57731"></path><g clip-path="url(#clip1_680_16432)"><path d="M359.248 373.634C359.248 376.874 358.388 379.345 356.793 381.006C355.199 382.664 352.83 383.555 349.727 383.555C346.623 383.555 344.215 382.664 342.583 381.003C340.949 379.342 340.053 376.871 340.053 373.634C340.053 370.397 340.949 367.812 342.589 366.04C344.225 364.271 346.633 363.277 349.727 363.277C352.821 363.277 355.189 364.271 356.787 366.038C358.388 367.809 359.248 370.393 359.248 373.634Z" fill="white" stroke="#24272C" stroke-width="0.57731" stroke-linecap="round"></path><path d="M342.141 373.329C341.86 374.957 341.176 376.122 340.486 377.782C339.339 372.494 339.712 369.633 340.96 365.342C347.776 362.126 351.658 362.099 358.661 365.342C359.763 369.647 360.177 372.163 358.888 377.566C357.958 375.8 357.308 374.751 356.913 373.226C356.783 372.722 356.269 372.4 355.767 372.538C351.035 373.839 348.004 373.724 343.294 372.537C342.76 372.402 342.235 372.786 342.141 373.329Z" fill="#24272C"></path></g><g filter="url(#filter0_f_680_16432)"><rect x="340.198" y="369.842" width="19.3399" height="1.87626" fill="#1A1A1A" fill-opacity="0.55"></rect></g><path d="M340.112 364.163C340.112 360.776 343.012 358.15 346.396 358.289C348.748 358.386 350.927 358.387 353.31 358.289C356.694 358.149 359.596 360.777 359.596 364.164V369.409H340.112V364.163Z" fill="#24272C"></path><g filter="url(#filter1_f_680_16432)"><rect x="340.198" y="368.109" width="19.3399" height="1.5876" fill="#1A1A1A" fill-opacity="0.45"></rect></g><g filter="url(#filter2_d_680_16432)"><rect x="337.889" y="368.689" width="24.1027" height="2.74222" rx="0.57731" fill="#24272C"></rect></g><path d="M344.769 385.147C344.835 385.116 344.931 385.14 344.979 385.224C347.309 389.261 352.951 388.945 354.711 385.261C354.759 385.16 354.867 385.131 354.936 385.162C358.827 386.925 361.382 388.801 363.126 391.25C364.873 393.702 365.83 396.758 366.466 400.925C366.479 401.012 366.411 401.09 366.325 401.09H333.12C333.035 401.09 332.967 401.012 332.98 400.925C333.668 396.549 334.799 393.457 336.651 391.038C338.503 388.619 341.098 386.845 344.769 385.147Z" fill="white" stroke="#24272C" stroke-width="0.57731" stroke-linecap="round" stroke-linejoin="round"></path><path d="M349.773 393.056L350.016 393.411L350.252 393.052L355.24 385.466C357.67 386.59 358.903 387.42 361.052 389.273V400.543H338.537V389.273C340.687 387.425 342.117 386.593 344.57 385.463L349.773 393.056Z" fill="#24272C" stroke="#24272C" stroke-width="0.57731"></path></g><rect x="323.562" y="350.755" width="52.3213" height="52.3213" rx="26.1606" stroke="#F1F4FB" stroke-width="7.47447"></rect><g clip-path="url(#clip2_680_16432)"><rect x="26.1711" y="82.8359" width="59.7957" height="59.7957" rx="29.8979" fill="#FFC20E"></rect><path d="M80.7013 119.361C80.7013 134.187 66.9088 137.75 56.7924 137.75C46.6761 137.75 31.4375 134.187 31.4375 119.361C31.4375 104.535 39.7285 84.1666 56.7924 84.061C73.8564 83.9553 80.7013 104.535 80.7013 119.361Z" fill="#24272C"></path><rect x="49.5275" y="110.811" width="13.1269" height="24.6572" rx="2.65118" fill="white" stroke="#24272C" stroke-width="0.769747" stroke-linecap="round"></rect><path d="M49.8923 126.712V118.83H63.0942C62.0999 122.872 56.171 126.93 49.8923 126.712Z" fill="#7E7E7E" fill-opacity="0.45"></path><path d="M47.989 109.751C47.989 112 45.9588 113.888 43.3705 113.888C40.7823 113.888 38.7521 112 38.7521 109.751C38.7521 107.501 40.7823 105.613 43.3705 105.613C45.9588 105.613 47.989 107.501 47.989 109.751Z" fill="white" stroke="#24272C" stroke-width="0.769747"></path><path d="M64.7317 109.751C64.7317 112 66.7619 113.888 69.3502 113.888C71.9384 113.888 73.9686 112 73.9686 109.751C73.9686 107.501 71.9384 105.613 69.3502 105.613C66.7619 105.613 64.7317 107.501 64.7317 109.751Z" fill="white" stroke="#24272C" stroke-width="0.769747"></path><path d="M69.1567 107.783C69.1567 112.103 68.0102 115.398 65.8825 117.612C63.7571 119.823 60.5995 121.011 56.4617 121.011C52.3236 121.011 49.1129 119.823 46.9358 117.609C44.7578 115.394 43.5626 112.099 43.5626 107.783C43.5626 103.461 44.7618 98.9535 46.9839 95.5378C49.2031 92.1266 52.4165 89.836 56.4617 89.836C60.5053 89.836 63.6669 92.1248 65.8352 95.5344C68.007 98.9495 69.1567 103.458 69.1567 107.783Z" fill="white" stroke="#24272C" stroke-width="0.769747" stroke-linecap="round"></path><path d="M59.1471 95.4149C54.9421 103.574 51.4758 105.376 42.4051 106.191C40.577 93.7792 43.4945 91.1435 57.1265 89.0645C68.2193 92.7633 68.5032 96.3026 68.769 106.191C62.117 104.296 61.5225 101.535 59.1471 95.4149Z" fill="#24272C"></path><path d="M49.6139 123.642C49.6807 123.611 49.782 123.618 49.8675 123.688C51.4317 124.954 54.0187 125.46 56.45 125.421C57.6763 125.401 58.8876 125.243 59.945 124.96C60.9959 124.679 61.925 124.268 62.5604 123.721L62.3115 123.432L62.5604 123.721C62.6634 123.632 62.7805 123.623 62.8516 123.655C68.1064 126.015 71.5528 128.521 73.9035 131.795C76.2567 135.073 77.541 139.162 78.3942 144.748C78.412 144.864 78.3211 144.969 78.2067 144.969H33.9335C33.8194 144.969 33.7284 144.864 33.7466 144.748C34.6679 138.884 36.1861 134.749 38.6781 131.517C41.1704 128.284 44.6656 125.916 49.6139 123.642Z" fill="white" stroke="#24272C" stroke-width="0.769747" stroke-linecap="round" stroke-linejoin="round"></path><path d="M49.3339 120.432L56.0691 123.992L63.0931 120.432V123.992L57.5124 126.82V145.352H54.6259V126.789L49.3339 123.992V120.432Z" fill="#24272C"></path></g><rect x="22.4339" y="79.0987" width="67.2702" height="67.2702" rx="33.6351" stroke="#F1F4FB" stroke-width="7.47447"></rect><circle cx="12.1896" cy="320.155" r="7.47447" fill="#A81417" stroke="#F1F4FB" stroke-width="7.47447"></circle><circle cx="462.972" cy="294.929" r="7.47447" fill="#A81417" stroke="#F1F4FB" stroke-width="7.47447"></circle><circle cx="363.086" cy="150.259" r="7.47447" fill="#A81417" stroke="#F1F4FB" stroke-width="7.47447"></circle><circle cx="427.238" cy="131.505" r="7.47447" fill="#FFC20E" stroke="#F1F4FB" stroke-width="7.47447"></circle><circle cx="261.322" cy="487.048" r="7.47447" fill="#FFC20E" stroke="#F1F4FB" stroke-width="7.47447"></circle><g clip-path="url(#clip3_680_16432)"><rect x="282.591" y="8.0918" width="74.7447" height="74.7447" rx="37.3723" fill="#A81417"></rect><rect x="311.787" y="43.0612" width="16.4086" height="30.8215" rx="3.31397" fill="white" stroke="#24272C" stroke-width="0.962184" stroke-linecap="round"></rect><path d="M312.243 62.9378V53.0859H328.745C327.502 58.138 320.091 63.2106 312.243 62.9378Z" fill="#7E7E7E" fill-opacity="0.45"></path><path d="M310.342 42.1665C310.342 44.9782 307.805 47.3382 304.569 47.3382C301.334 47.3382 298.796 44.9782 298.796 42.1665C298.796 39.3548 301.334 36.9948 304.569 36.9948C307.805 36.9948 310.342 39.3548 310.342 42.1665Z" fill="white" stroke="#24272C" stroke-width="0.962184"></path><path d="M330.308 42.1665C330.308 44.9782 332.845 47.3382 336.081 47.3382C339.316 47.3382 341.854 44.9782 341.854 42.1665C341.854 39.3548 339.316 36.9948 336.081 36.9948C332.845 36.9948 330.308 39.3548 330.308 42.1665Z" fill="white" stroke="#24272C" stroke-width="0.962184"></path><g clip-path="url(#clip4_680_16432)"><path d="M336.322 41.1644C336.322 46.0572 334.896 49.7854 332.246 52.2941C329.591 54.8067 325.638 56.1617 320.453 56.1617C315.269 56.1617 311.249 54.8065 308.53 52.2904C305.815 49.7795 304.329 46.0513 304.329 41.1644C304.329 36.2671 305.823 31.1565 308.594 27.2823C311.359 23.4164 315.376 20.8014 320.453 20.8014C325.529 20.8014 329.481 23.4145 332.182 27.2781C334.89 31.1511 336.322 36.2628 336.322 41.1644Z" fill="white" stroke="#24272C" stroke-width="0.962184" stroke-linecap="round"></path></g><path d="M301.082 27.3751C300.687 22.0654 302.164 19.3168 306.614 18.2343C306.614 18.2343 319.844 5.12461 331.511 13.7843C343.177 22.4439 335.961 37.1659 335.961 37.1659C333.194 33.4375 331.983 32.6901 332.232 27.9764C322.167 31.001 317.972 30.1051 312.387 23.8872C311.661 27.9018 310.824 29.3482 307.937 31.032C308.454 33.9939 305.411 36.5646 304.569 37.4065C301.884 34.4617 301.376 32.3074 301.082 27.3751Z" fill="#24272C"></path><path d="M311.71 57.5008C311.82 57.4499 311.98 57.4903 312.06 57.6293C315.944 64.3584 325.348 63.8315 328.28 57.6907C328.36 57.5236 328.54 57.4744 328.655 57.5266C335.14 60.4656 339.398 63.5916 342.306 67.6732C345.217 71.7593 346.811 76.8527 347.872 83.7982C347.894 83.9431 347.78 84.0734 347.637 84.0734H292.296C292.153 84.0734 292.04 83.9427 292.062 83.7977C293.208 76.5049 295.093 71.3511 298.18 67.3198C301.267 63.2882 305.592 60.3323 311.71 57.5008Z" fill="white" stroke="#24272C" stroke-width="0.962184" stroke-linecap="round" stroke-linejoin="round"></path><path d="M317.438 62.4238H322.73V84.073H317.438V62.4238Z" fill="#24272C"></path><circle cx="320.084" cy="71.0859" r="1.44328" fill="white" fill-opacity="0.5"></circle><circle cx="320.084" cy="77.3398" r="1.44328" fill="white" fill-opacity="0.5"></circle><rect x="327.301" y="72.5273" width="13.23" height="2.88655" rx="1.44328" fill="#24272C"></rect></g><rect x="278.854" y="4.35456" width="82.2191" height="82.2191" rx="41.1096" stroke="#F1F4FB" stroke-width="7.47447"></rect><g clip-path="url(#clip5_680_16432)"><rect x="87.3625" y="416.041" width="74.7447" height="74.7447" rx="37.3723" fill="#FFC20E"></rect><path d="M141.452 445.957C141.452 456.97 132.424 459.428 122.923 459.428C113.421 459.428 106.813 456.97 106.813 445.957C106.813 434.944 108.496 423.346 123.892 423.346C139.288 423.346 141.452 434.944 141.452 445.957Z" fill="#24272C"></path><path d="M146.382 425.509C146.382 431.089 141.859 435.612 136.279 435.612C130.7 435.612 126.177 431.089 126.177 425.509C126.177 419.929 130.7 415.406 136.279 415.406C141.859 415.406 146.382 419.929 146.382 425.509Z" fill="#24272C"></path><rect x="116.556" y="451.01" width="16.4086" height="30.8215" rx="3.31397" fill="white" stroke="#24272C" stroke-width="0.962184" stroke-linecap="round"></rect><path d="M117.012 470.887V461.035H133.515C132.272 466.087 124.861 471.16 117.012 470.887Z" fill="#7E7E7E" fill-opacity="0.45"></path><path d="M113.43 450.405C113.43 453.216 110.893 455.577 107.657 455.577C104.422 455.577 101.884 453.216 101.884 450.405C101.884 447.593 104.422 445.233 107.657 445.233C110.893 445.233 113.43 447.593 113.43 450.405Z" fill="white" stroke="#24272C" stroke-width="0.962184"></path><path d="M134.358 450.405C134.358 453.216 136.896 455.577 140.131 455.577C143.367 455.577 145.904 453.216 145.904 450.405C145.904 447.593 143.367 445.233 140.131 445.233C136.896 445.233 134.358 447.593 134.358 450.405Z" fill="white" stroke="#24272C" stroke-width="0.962184"></path><path d="M139.89 447.942C139.89 453.343 138.457 457.461 135.798 460.228C133.141 462.992 129.194 464.477 124.022 464.477C118.849 464.477 114.836 462.992 112.114 460.224C109.392 457.455 107.898 453.337 107.898 447.942C107.898 442.54 109.397 436.905 112.175 432.636C114.948 428.372 118.965 425.508 124.022 425.508C129.076 425.508 133.028 428.369 135.739 432.631C138.453 436.9 139.89 442.536 139.89 447.942Z" fill="white" stroke="#24272C" stroke-width="0.962184" stroke-linecap="round"></path><path d="M131.671 434.331C124.936 443.953 118.753 444.695 107.415 445.714C109.519 430.992 108.497 425.749 125.817 425.027C139.648 425.869 139.316 433.353 139.648 445.714C135.52 443.472 134.64 441.981 131.671 434.331Z" fill="#24272C"></path><path d="M116.48 467.134C116.59 467.083 116.75 467.123 116.83 467.262C120.713 473.991 130.117 473.464 133.049 467.324C133.129 467.156 133.309 467.107 133.424 467.159C139.909 470.098 144.167 473.224 147.075 477.306C149.987 481.392 151.58 486.486 152.641 493.431C152.663 493.576 152.55 493.706 152.407 493.706H97.0653C96.9227 493.706 96.809 493.575 96.8317 493.431C97.9776 486.138 99.8621 480.984 102.949 476.953C106.036 472.921 110.362 469.965 116.48 467.134Z" fill="white" stroke="#24272C" stroke-width="0.962184" stroke-linecap="round" stroke-linejoin="round"></path><path d="M96.8317 493.431C97.9658 486.213 99.8233 481.09 102.854 477.078C105.884 473.066 110.122 470.117 116.104 467.309C116.257 467.237 116.436 467.348 116.436 467.523V493.466C116.436 493.599 116.329 493.706 116.196 493.706H97.0653C96.9227 493.706 96.809 493.575 96.8317 493.431Z" fill="#24272C" stroke="#24272C" stroke-width="0.962184" stroke-linecap="round" stroke-linejoin="round"></path><path d="M152.879 493.431C151.745 486.213 149.887 481.09 146.857 477.078C143.827 473.066 139.589 470.117 133.607 467.309C133.454 467.237 133.274 467.348 133.274 467.523V493.466C133.274 493.599 133.382 493.706 133.515 493.706H152.645C152.788 493.706 152.902 493.575 152.879 493.431Z" fill="#24272C" stroke="#24272C" stroke-width="0.962184" stroke-linecap="round" stroke-linejoin="round"></path></g><rect x="83.6253" y="412.304" width="82.2191" height="82.2191" rx="41.1096" stroke="#F1F4FB" stroke-width="7.47447"></rect><defs><filter id="filter0_f_680_16432" x="338.466" y="368.11" width="22.8037" height="5.34081" filterUnits="userSpaceOnUse" color-interpolation-filters="sRGB"><feGaussianBlur stdDeviation="0.865965"></feGaussianBlur></filter><filter id="filter1_f_680_16432" x="338.466" y="366.377" width="22.8037" height="5.05175" filterUnits="userSpaceOnUse" color-interpolation-filters="sRGB"><feGaussianBlur stdDeviation="0.865965"></feGaussianBlur></filter><filter id="filter2_d_680_16432" x="336.157" y="367.535" width="27.5665" height="6.20605" filterUnits="userSpaceOnUse" color-interpolation-filters="sRGB"><feGaussianBlur stdDeviation="0.865965"></feGaussianBlur></filter><linearGradient id="paint0_linear_680_16432" x1="404.614" y1="428.689" x2="124.431" y2="146.779" gradientUnits="userSpaceOnUse"><stop stop-color="#A81417"></stop><stop offset="1" stop-color="#A81417" stop-opacity="0"></stop></linearGradient><clipPath id="clip0_680_16432"><rect x="327.299" y="354.492" width="44.8468" height="44.8468" rx="22.4234" fill="white"></rect></clipPath><clipPath id="clip1_680_16432"><rect width="19.7729" height="27.4222" fill="white" transform="translate(339.764 356.709)"></rect></clipPath><clipPath id="clip2_680_16432"><rect x="26.1711" y="82.8359" width="59.7957" height="59.7957" rx="29.8979" fill="white"></rect></clipPath><clipPath id="clip3_680_16432"><rect x="282.591" y="8.0918" width="74.7447" height="74.7447" rx="37.3723" fill="white"></rect></clipPath><clipPath id="clip4_680_16432"><rect width="32.9548" height="45.7037" fill="white" transform="translate(303.848 11.0176)"></rect></clipPath><clipPath id="clip5_680_16432"><rect x="87.3625" y="416.041" width="74.7447" height="74.7447" rx="37.3723" fill="white"></rect></clipPath></defs></svg>