<?xml version="1.0"?>
<svg xmlns="http://www.w3.org/2000/svg" height="512px" viewBox="-1 0 511 511.998" width="512px"><path d="m49.542969 406.671875c-.648438 0-1.308594-.0625-1.949219-.191406-.640625-.128907-1.269531-.320313-1.871094-.570313-.609375-.25-1.1875-.558594-1.730468-.921875-.546876-.367187-1.058594-.777343-1.519532-1.238281-1.859375-1.859375-2.929687-4.441406-2.929687-7.070312 0-.660157.070312-1.308594.199219-1.960938.132812-.640625.320312-1.269531.570312-1.867188.25-.601562.5625-1.179687.921875-1.730468.359375-.542969.78125-1.0625 1.238281-1.519532.460938-.460937.972656-.871093 1.519532-1.242187.542968-.359375 1.121093-.667969 1.730468-.917969.601563-.25 1.230469-.441406 1.871094-.570312 1.289062-.261719 2.621094-.261719 3.910156 0 .628906.128906 1.261719.320312 1.871094.570312.597656.25 1.179688.558594 1.71875.917969.550781.371094 1.058594.78125 1.519531 1.242187.460938.457032.878907.976563 1.25 1.519532.359375.550781.671875 1.128906.921875 1.730468.25.597657.4375 1.226563.570313 1.867188.128906.652344.1875 1.300781.1875 1.960938 0 2.628906-1.070313 5.210937-2.929688 7.070312-.460937.460938-.96875.871094-1.519531 1.238281-.539062.363281-1.121094.671875-1.71875.921875-.609375.25-1.242188.441406-1.871094.570313-.648437.128906-1.308594.191406-1.960937.191406zm0 0" fill="#D80027"/><path d="m510.007812 370.371094c0-10.351563-4.351562-19.703125-11.320312-26.328125 6.96875-6.621094 11.320312-15.976563 11.320312-26.324219 0-20.03125-16.296874-36.328125-36.328124-36.328125h-1.492188v-183.339844c0-1.546875-.355469-3.070312-1.046875-4.457031l-43.820313-88.050781c-1.691406-3.394531-5.160156-5.542969-8.953124-5.542969h-15.246094c-3.792969 0-7.261719 2.148438-8.949219 5.542969l-43.824219 88.050781c-.691406 1.386719-1.046875 2.910156-1.046875 4.457031v183.339844h-6.957031l.003906-62.335937c0-11.15625-4.34375-21.644532-12.234375-29.53125-7.890625-7.882813-18.378906-12.226563-29.539062-12.226563-21.371094 0-39.226563 16.019531-41.53125 37.265625-.003907.046875-.007813.097656-.015625.148438l-8.1875 87.648437c-2.042969 9.644531-6.980469 15.863281-15.085938 18.996094-2.359375.914062-4.683594 1.441406-6.71875 1.746093-1.835937-2.175781-4.578125-3.554687-7.644531-3.554687h-33.714844c-.292969-5.261719-4.648437-9.4375-9.984375-9.4375h-167.191406c-5.523438 0-10 4.480469-10 10v153.996094c0 5.523437 4.476562 10 10 10h167.195312c5.332032 0 9.691407-4.175781 9.984376-9.433594h33.710937c3.703125 0 6.933594-2.015625 8.664063-5.003906 3.519531 1.816406 6.5 4.753906 8.457031 8.511719 7.09375 13.617187 18.992187 21.117187 33.492187 21.117187h80.339844c6.667969 7.769531 16.554688 12.699219 27.570312 12.699219h93.769532c20.03125 0 36.324218-16.292969 36.324218-36.324219 0-10.351563-4.351562-19.703125-11.320312-26.328125 6.96875-6.621094 11.320312-15.972656 11.320312-26.324219 0-10.347656-4.351562-19.703125-11.320312-26.324219 6.96875-6.621093 11.320312-15.976562 11.320312-26.324218zm-100.691406-350.371094h2.855469l13.039063 26.191406h-28.933594zm-40.015625 80.402344 17.023438-34.210938h48.839843l17.023438 34.210938v11.148437h-82.890625v-11.148437zm0 31.148437h82.890625v149.839844h-31.445312v-94.09375c0-5.523437-4.476563-10-10-10-5.523438 0-10 4.476563-10 10v94.09375h-31.445313zm-348.800781 198.5625h147.195312v56.5625h-81.191406c-5.523437 0-10 4.476563-10 10 0 5.523438 4.476563 10 10 10h81.191406v57.429688h-147.195312zm167.195312 9.433594h23.695313v115.125h-23.695313zm84.308594 139.75c-7.066406 0-12.074218-3.292969-15.757812-10.359375-5.273438-10.121094-14.34375-17.292969-24.855469-20.070312v-44.753907h6.242187c33.398438 0 61.988282-23.847656 67.980469-56.703125.992188-5.433594-2.609375-10.640625-8.042969-11.632812-5.433593-.992188-10.640624 2.609375-11.628906 8.042968-4.261718 23.347657-24.578125 40.292969-48.308594 40.292969h-6.242187v-41.039062c14.953125-2.054688 33.984375-11.300781 39.160156-37.285157.066407-.339843.117188-.679687.152344-1.023437l8.234375-88.113281c1.230469-11.039063 10.519531-19.351563 21.640625-19.351563 5.816406 0 11.285156 2.261719 15.398437 6.371094 4.109376 4.109375 6.371094 9.570313 6.371094 15.382813l-.003906 72.335937c0 2.652344 1.054688 5.199219 2.929688 7.074219s4.417968 2.925781 7.070312 2.925781h15.132812c-2.484374 4.914063-3.882812 10.460937-3.882812 16.328125 0 10.347656 4.351562 19.703125 11.320312 26.324219-6.96875 6.625-11.320312 15.976562-11.320312 26.328125 0 10.347656 4.351562 19.703125 11.320312 26.324218-6.96875 6.625-11.320312 15.976563-11.320312 26.328126 0 10.347656 4.351562 19.699218 11.320312 26.324218-6.96875 6.621094-11.320312 15.976563-11.320312 26.328125 0 1.222657.0625 2.429688.179688 3.621094zm218.003906-56.273437c0 9-7.324218 16.324218-16.328124 16.324218h-55.90625c-5.523438 0-10 4.476563-10 10 0 5.523438 4.476562 10 10 10h55.910156c9.003906 0 16.328125 7.324219 16.328125 16.328125 0 9-7.324219 16.324219-16.328125 16.324219h-93.765625c-9.003907 0-16.324219-7.324219-16.324219-16.324219 0-9.003906 7.320312-16.328125 16.324219-16.328125h.003906c5.523437 0 10-4.476562 10-10 0-5.523437-4.476563-10-10-10-9.003906 0-16.328125-7.324218-16.328125-16.324218 0-9.003907 7.324219-16.328126 16.328125-16.328126h93.757813c9.003906 0 16.328124 7.324219 16.328124 16.328126zm-110.085937-36.328126c-9.003906 0-16.332031-7.324218-16.332031-16.324218 0-9.003906 7.328125-16.328125 16.332031-16.328125h56.964844c5.519531 0 10-4.476563 10-10 0-5.523438-4.480469-10-10-10h-56.964844c-9.003906 0-16.332031-7.324219-16.332031-16.324219 0-9.003906 7.328125-16.328125 16.332031-16.328125h93.757813c9.003906 0 16.328124 7.324219 16.328124 16.328125 0 9-7.324218 16.324219-16.328124 16.324219-5.523438 0-10 4.476562-10 10 0 5.523437 4.476562 10 10 10 9.003906 0 16.328124 7.324219 16.328124 16.328125 0 9-7.324218 16.324218-16.328124 16.324218zm0 0" fill="#D80027"/></svg>
