<svg width="127" height="111" viewBox="0 0 127 111" fill="none" xmlns="http://www.w3.org/2000/svg">
<path d="M121.581 104.252H5.42041" stroke="#D56061" stroke-width="4.93881" stroke-miterlimit="22.9256" stroke-linecap="round" stroke-linejoin="round"/>
<path d="M30.0685 99.6792C32.359 99.6792 34.2159 101.542 34.2159 103.84C34.2159 106.137 32.3587 108 30.0685 108C27.7768 108 25.9196 106.137 25.9196 103.84C25.9196 101.542 27.7768 99.6792 30.0685 99.6792V99.6792Z" stroke="#D56061" stroke-width="4.93881" stroke-miterlimit="22.9256" stroke-linecap="round" stroke-linejoin="round"/>
<path d="M52.1287 25.7446C63.0071 19.4467 76.9167 23.1843 83.197 34.0916C89.4773 45.0004 85.7501 58.9505 74.8717 65.2468C63.9946 71.5462 50.0838 67.8086 43.8032 56.8998C37.5229 45.991 41.25 32.0425 52.1284 25.7446H52.1287Z" stroke="#D56061" stroke-width="4.93881" stroke-miterlimit="22.9256" stroke-linecap="round" stroke-linejoin="round"/>
<path d="M56.0625 34.3608L66.2909 40.2837L76.5197 46.2054L66.2925 52.1267L56.0637 58.0481V46.2054L56.0625 34.3608Z" stroke="#D56061" stroke-width="4.93881" stroke-miterlimit="22.9256" stroke-linecap="round" stroke-linejoin="round"/>
<path d="M9.77575 3H117.224C120.951 3 124 6.06556 124 9.79627V81.1565C124 84.8863 120.944 87.9516 117.224 87.9516H9.77575C6.05731 87.9516 3 84.8941 3 81.1565V9.79627C3 6.0587 6.04985 3 9.77575 3V3Z" stroke="#D56061" stroke-width="4.93881" stroke-miterlimit="22.9256" stroke-linecap="round" stroke-linejoin="round"/>
</svg>
