<svg xmlns="http://www.w3.org/2000/svg" xmlns:xlink="http://www.w3.org/1999/xlink" id="Layer_1" x="0px" y="0px" viewBox="0 0 537.9 449.7" style="enable-background:new 0 0 537.9 449.7;" xml:space="preserve"> <style type="text/css"> .st0{fill:none;stroke:#D92631;stroke-width:11.5315;stroke-linecap:round;stroke-linejoin:round;stroke-miterlimit:10;} </style> <g> <g> <path class="st0" d="M480.6,410.7c0,10.2-8.3,18.5-18.5,18.5H85.4c-10.2,0-18.5-8.3-18.5-18.5V35.6c0-10.2,8.3-18.5,18.5-18.5 h376.7c10.2,0,18.5,8.3,18.5,18.5V410.7z"></path> </g> <g> <path class="st0" d="M444.8,298.6c0,6.2-5,11.2-11.1,11.2h-321c-6.2,0-11.2-5-11.2-11.2v-239c0-6.2,5-11.2,11.2-11.2h319 c6.2,0,11.2,5,11.3,11.2L444.8,298.6z"></path> </g> <line class="st0" x1="67.3" y1="344.5" x2="480.9" y2="344.5"></line> <circle class="st0" cx="169.3" cy="384.7" r="16.4"></circle> <line class="st0" x1="96.8" y1="384.7" x2="152.8" y2="384.7"></line> <line class="st0" x1="186.9" y1="384.7" x2="448.4" y2="384.7"></line> </g> <circle class="st0" cx="276.8" cy="141.3" r="50.3"></circle> <path class="st0" d="M211.4,306.9v-82.2c0-16.3,13.3-29.6,29.6-29.6h71.8c16.3,0,29.6,13.3,29.6,29.6v82.2"></path> </svg>